<svg xmlns="http://www.w3.org/2000/svg" xmlns:xlink="http://www.w3.org/1999/xlink" fill="none" version="1.1" width="1024" height="1024" viewBox="0 0 1024 1024"><defs><clipPath id="master_svg0_85_4996"><rect x="0" y="0" width="1024" height="1024" rx="220"/></clipPath><linearGradient id="magic_dash_logo_bg" x1="126" y1="74" x2="912" y2="934" gradientUnits="userSpaceOnUse"><stop offset="0" stop-color="#2A82FF"/><stop offset="0.42" stop-color="#006AFF"/><stop offset="0.72" stop-color="#005DE6"/><stop offset="1" stop-color="#004FC7"/></linearGradient><radialGradient id="magic_dash_logo_glow_top" cx="0" cy="0" r="1" gradientUnits="userSpaceOnUse" gradientTransform="translate(234 194) rotate(50) scale(520)"><stop offset="0" stop-color="#66A6FF" stop-opacity="0.34"/><stop offset="0.72" stop-color="#2A82FF" stop-opacity="0.09"/><stop offset="1" stop-color="#2A82FF" stop-opacity="0"/></radialGradient><radialGradient id="magic_dash_logo_glow_bottom" cx="0" cy="0" r="1" gradientUnits="userSpaceOnUse" gradientTransform="translate(820 832) rotate(50) scale(540)"><stop offset="0" stop-color="#005DE6" stop-opacity="0.34"/><stop offset="1" stop-color="#005DE6" stop-opacity="0"/></radialGradient><linearGradient id="magic_dash_logo_mark" x1="250" y1="220" x2="792" y2="818" gradientUnits="userSpaceOnUse"><stop offset="0" stop-color="#FFFFFF"/><stop offset="0.72" stop-color="#F7FAFE"/><stop offset="1" stop-color="#DCEBFA"/></linearGradient><linearGradient id="magic_dash_logo_wave_fill" x1="92" y1="496" x2="922" y2="1032" gradientUnits="userSpaceOnUse"><stop offset="0" stop-color="#1F7DFF" stop-opacity="0.42"/><stop offset="0.45" stop-color="#006AFF" stop-opacity="0.50"/><stop offset="1" stop-color="#0048B8" stop-opacity="0.68"/></linearGradient><linearGradient id="magic_dash_logo_wave_rim" x1="-64" y1="746" x2="1088" y2="424" gradientUnits="userSpaceOnUse"><stop offset="0" stop-color="#D9E9FF" stop-opacity="0.08"/><stop offset="0.46" stop-color="#B8D7FF" stop-opacity="0.20"/><stop offset="1" stop-color="#E6F1FF" stop-opacity="0.10"/></linearGradient><filter id="magic_dash_logo_mark_depth" x="132" y="152" width="764" height="744" color-interpolation-filters="sRGB" filterUnits="userSpaceOnUse"><feDropShadow in="SourceGraphic" dx="0" dy="22" stdDeviation="18" flood-color="#003C93" flood-opacity="0.22" result="outerShadow"/><feMorphology in="SourceAlpha" operator="erode" radius="8" result="innerCore"/><feComposite in="SourceAlpha" in2="innerCore" operator="out" result="innerContour"/><feGaussianBlur in="innerContour" stdDeviation="5.5" result="softInnerContour"/><feFlood flood-color="#6EA6DC" flood-opacity="0.26" result="innerContourColor"/><feComposite in="innerContourColor" in2="softInnerContour" operator="in" result="innerContourShadow"/><feOffset in="SourceAlpha" dx="0" dy="5" result="lowerEdgeOffset"/><feGaussianBlur in="lowerEdgeOffset" stdDeviation="7" result="lowerEdgeBlur"/><feComposite in="lowerEdgeBlur" in2="SourceAlpha" operator="arithmetic" k2="-1" k3="1" result="lowerEdgeAlpha"/><feFlood flood-color="#4F8BCB" flood-opacity="0.16" result="lowerEdgeColor"/><feComposite in="lowerEdgeColor" in2="lowerEdgeAlpha" operator="in" result="lowerEdgeShade"/><feOffset in="SourceAlpha" dx="-4" dy="-4" result="upperEdgeOffset"/><feGaussianBlur in="upperEdgeOffset" stdDeviation="5" result="upperEdgeBlur"/><feComposite in="upperEdgeBlur" in2="SourceAlpha" operator="arithmetic" k2="-1" k3="1" result="upperEdgeAlpha"/><feFlood flood-color="#FFFFFF" flood-opacity="0.38" result="upperEdgeColor"/><feComposite in="upperEdgeColor" in2="upperEdgeAlpha" operator="in" result="upperEdgeHighlight"/><feMerge><feMergeNode in="outerShadow"/><feMergeNode in="SourceGraphic"/><feMergeNode in="innerContourShadow"/><feMergeNode in="lowerEdgeShade"/><feMergeNode in="upperEdgeHighlight"/></feMerge></filter></defs><g clip-path="url(#master_svg0_85_4996)"><g><g></g></g><g><g><path d="M0,0L1024,0L1024,1024L0,1024L0,0Z" fill="url(#magic_dash_logo_bg)" fill-opacity="1" style="mix-blend-mode:passthrough"/><circle cx="234" cy="194" r="520" fill="url(#magic_dash_logo_glow_top)"/><circle cx="820" cy="832" r="540" fill="url(#magic_dash_logo_glow_bottom)"/><g opacity="0.95"><circle cx="92" cy="188" r="2.4" fill="#FFFFFF" fill-opacity="0.34"/><circle cx="132" cy="306" r="3.2" fill="#FFFFFF" fill-opacity="0.30"/><circle cx="174" cy="142" r="2.0" fill="#FFFFFF" fill-opacity="0.38"/><circle cx="216" cy="246" r="3.9" fill="#FFFFFF" fill-opacity="0.28"/><circle cx="268" cy="108" r="2.7" fill="#FFFFFF" fill-opacity="0.34"/><circle cx="312" cy="328" r="2.2" fill="#FFFFFF" fill-opacity="0.30"/><circle cx="356" cy="184" r="3.3" fill="#FFFFFF" fill-opacity="0.32"/><circle cx="402" cy="104" r="1.8" fill="#FFFFFF" fill-opacity="0.42"/><circle cx="452" cy="226" r="2.6" fill="#FFFFFF" fill-opacity="0.34"/><circle cx="508" cy="142" r="3.7" fill="#FFFFFF" fill-opacity="0.26"/><circle cx="564" cy="266" r="2.1" fill="#FFFFFF" fill-opacity="0.34"/><circle cx="618" cy="122" r="2.9" fill="#FFFFFF" fill-opacity="0.32"/><circle cx="678" cy="218" r="3.4" fill="#FFFFFF" fill-opacity="0.28"/><circle cx="734" cy="104" r="2.2" fill="#FFFFFF" fill-opacity="0.36"/><circle cx="794" cy="178" r="3.8" fill="#FFFFFF" fill-opacity="0.28"/><circle cx="858" cy="282" r="2.5" fill="#FFFFFF" fill-opacity="0.34"/><circle cx="924" cy="192" r="3.1" fill="#FFFFFF" fill-opacity="0.28"/><circle cx="82" cy="442" r="3.0" fill="#FFFFFF" fill-opacity="0.28"/><circle cx="154" cy="528" r="2.2" fill="#FFFFFF" fill-opacity="0.34"/><circle cx="204" cy="412" r="2.8" fill="#FFFFFF" fill-opacity="0.30"/><circle cx="286" cy="512" r="3.6" fill="#FFFFFF" fill-opacity="0.24"/><circle cx="348" cy="434" r="1.9" fill="#FFFFFF" fill-opacity="0.36"/><circle cx="420" cy="536" r="2.5" fill="#FFFFFF" fill-opacity="0.28"/><circle cx="494" cy="414" r="3.2" fill="#FFFFFF" fill-opacity="0.24"/><circle cx="574" cy="486" r="2.0" fill="#FFFFFF" fill-opacity="0.34"/><circle cx="642" cy="376" r="3.0" fill="#FFFFFF" fill-opacity="0.30"/><circle cx="716" cy="488" r="2.3" fill="#FFFFFF" fill-opacity="0.32"/><circle cx="782" cy="394" r="3.7" fill="#FFFFFF" fill-opacity="0.26"/><circle cx="846" cy="520" r="2.1" fill="#FFFFFF" fill-opacity="0.36"/><circle cx="926" cy="430" r="3.4" fill="#FFFFFF" fill-opacity="0.28"/><circle cx="108" cy="688" r="2.6" fill="#FFFFFF" fill-opacity="0.24"/><circle cx="186" cy="790" r="3.4" fill="#FFFFFF" fill-opacity="0.22"/><circle cx="252" cy="650" r="2.0" fill="#FFFFFF" fill-opacity="0.30"/><circle cx="328" cy="752" r="3.0" fill="#FFFFFF" fill-opacity="0.22"/><circle cx="394" cy="660" r="2.4" fill="#FFFFFF" fill-opacity="0.26"/><circle cx="472" cy="834" r="2.9" fill="#FFFFFF" fill-opacity="0.22"/><circle cx="542" cy="706" r="2.1" fill="#FFFFFF" fill-opacity="0.28"/><circle cx="612" cy="812" r="3.5" fill="#FFFFFF" fill-opacity="0.22"/><circle cx="684" cy="690" r="2.5" fill="#FFFFFF" fill-opacity="0.26"/><circle cx="756" cy="826" r="2.0" fill="#FFFFFF" fill-opacity="0.30"/><circle cx="824" cy="676" r="3.2" fill="#FFFFFF" fill-opacity="0.24"/><circle cx="902" cy="798" r="2.7" fill="#FFFFFF" fill-opacity="0.22"/><circle cx="942" cy="610" r="1.9" fill="#FFFFFF" fill-opacity="0.32"/><circle cx="122" cy="872" r="1.8" fill="#FFFFFF" fill-opacity="0.26"/><circle cx="278" cy="882" r="2.3" fill="#FFFFFF" fill-opacity="0.22"/><circle cx="392" cy="902" r="1.7" fill="#FFFFFF" fill-opacity="0.28"/><circle cx="566" cy="916" r="2.2" fill="#FFFFFF" fill-opacity="0.22"/><circle cx="710" cy="914" r="1.8" fill="#FFFFFF" fill-opacity="0.26"/><circle cx="880" cy="896" r="2.4" fill="#FFFFFF" fill-opacity="0.22"/></g><g><path d="M-64,746C128,646 258,720 432,658C640,584 752,386 1088,424L1088,1088L-64,1088Z" fill="url(#magic_dash_logo_wave_fill)"/><path d="M-64,746C128,646 258,720 432,658C640,584 752,386 1088,424" stroke="url(#magic_dash_logo_wave_rim)" stroke-width="5" stroke-linecap="round" fill="none"/></g><path d="" fill="#000000" fill-opacity="0" style="mix-blend-mode:passthrough"/></g><g filter="url(#magic_dash_logo_mark_depth)"><path d="M697.0876140136719,498.43235400390626C700.4796140136718,495.1933540039062,702.7446140136719,490.9553540039062,703.5516140136718,486.33635400390625C705.0846140136719,476.82235400390624,700.157614013672,467.43735400390625,691.455614013672,463.29635400390623L545.5356140136719,391.4243540039063L570.9436140136719,234.87995400390625C572.6386140136719,225.71395400390625,567.9306140136719,216.55984400390625,559.4876140136719,212.60797400390624C550.6556140136719,208.31997400390625,541.5676140136718,211.58396900390625,534.5916140136719,218.30397400390626L422.27161401367186,326.72035400390627C375.5516140136719,305.21635400390626,328.8316140136719,283.71235400390625,282.1116140136719,262.2083540039063C269.2476140136719,256.2563540039062,255.03961401367187,253.44035400390624,246.33601401367188,258.17595400390625L243.96801401367188,260.03195400390626C236.86401401367186,266.81595400390626,236.03201401367187,278.01595400390624,240.5120140136719,286.52795400390625L312.95961401367185,433.8563540039063L200.64001401367187,540.6723540039063C193.72801401367187,547.3923540039062,190.33601401367187,556.2243540039062,194.68801401367188,564.7363540039062C199.16801401367186,573.2483540039062,207.10401401367187,576.3843540039063,216.89601401367187,574.9763540039062L379.5196140136719,550.7203540039063L454.39961401367185,692.0323540039062C459.0566140136719,700.5793540039062,468.5476140136719,705.3173540039063,478.1766140136719,703.9023540039062C487.8066140136719,702.4883540039062,495.53361401367187,695.2213540039063,497.5356140136719,685.6963540039062L523.1356140136719,529.6643540039063L684.4796140136718,504.57635400390626C689.1986140136719,503.82135400390627,693.5866140136718,501.68335400390623,697.0876140136719,498.43235400390626ZM590.6556140136719,544.7043540039062L566.8476140136719,549.3763540039063C554.4316140136718,550.8483540039063,542.8476140136719,560.5123540039062,540.9276140136719,572.4803540039063L537.7276140136719,591.9363540039062L740.1596140136719,813.6963540039062C751.2316140136719,826.0483540039063,769.5996140136718,829.5683540039063,784.5116140136719,822.4643540039062C792.8316140136719,818.4323540039062,801.4076140136718,813.4403540039062,807.6796140136719,807.1683540039063C815.9886140136718,798.7743540039063,822.9796140136718,789.1723540039062,828.4156140136719,778.6883540039063C836.8506140136719,763.5243540039063,833.1196140136718,744.4883540039062,819.5836140136719,733.6323540039062L590.6556140136719,544.7043540039062ZM740.8636140136718,316.80035400390625C741.1196140136718,315.90435400390623,740.8636140136718,315.0083540039062,740.5436140136719,314.1763540039062C739.5676140136719,312.4673540039063,737.6136140136718,311.56735400390625,735.6796140136719,311.9363540039062L704.3196140136719,317.0563540039062L689.7916140136718,289.47195400390626C688.8956140136719,287.8079540039063,687.359614013672,286.91195400390626,685.4396140136719,287.23195400390625C683.647614013672,287.55195400390625,682.4956140136719,289.08795400390625,682.1756140136719,290.94395400390624L677.2476140136719,320.70435400390625L645.2476140136719,326.65635400390624C643.455614013672,326.97635400390624,641.4716140136718,328.32035400390623,641.0876140136719,330.24035400390625L641.2156140136719,330.24035400390625C640.9596140136719,332.09635400390624,642.3036140136719,334.01635400390626,643.9676140136719,334.78435400390623L672.7676140136718,349.7603540039063L667.5836140136719,379.32835400390627C667.3276140136718,381.18435400390626,667.9676140136719,382.9123540039062,669.6316140136719,383.7443540039062C671.1676140136719,384.6403540039063,672.8956140136719,384.19235400390625,674.1756140136719,382.9123540039062L697.0236140136719,360.7683540039062L725.4396140136719,374.65635400390624C727.2386140136718,375.4653540039062,729.3456140136718,375.13935400390625,730.8156140136718,373.82435400390625C731.3916140136719,373.12035400390624,731.6476140136718,372.35235400390627,731.9676140136719,371.39235400390623C732.1016140136719,370.47135400390624,731.9446140136719,369.53135400390624,731.5196140136719,368.70435400390625L717.0556140136719,341.24835400390623L739.5196140136719,319.1043540039062C740.2166140136719,318.51035400390623,740.6906140136718,317.6983540039063,740.8636140136718,316.80035400390625ZM230.1440140136719,373.31235400390625C229.76831401367187,372.84335400390626,229.25251401367188,372.50635400390627,228.67201401367188,372.35235400390627C227.50241401367188,372.0343540039063,226.2577140136719,372.46635400390625,225.5360140136719,373.44035400390624L214.33601401367187,390.20835400390627L194.62400401367188,384.8323540039063C193.5240140136719,384.4673540039063,192.31648401367187,384.88735400390624,191.68000801367188,385.8563540039063C190.9760130136719,386.8803540039063,191.29600521367186,388.09635400390624,192.00001501367188,388.99235400390626L204.22401401367188,404.2243540039062L193.21601401367187,421.5683540039063C192.44801401367187,422.5923540039063,192.32002401367188,424.06435400390626,193.08801401367188,425.02435400390624L193.21601401367187,424.9603540039062C193.92001401367187,425.92035400390625,195.32801401367186,426.1763540039062,196.48001401367188,425.72835400390625L216.32001401367188,419.07235400390624L228.35201401367186,434.24035400390625C229.1200140136719,435.26435400390625,230.20801401367189,435.77635400390625,231.29601401367188,435.32835400390627C232.44801401367187,434.94435400390626,232.96001401367187,433.9843540039062,232.96001401367187,432.7683540039062L232.25601401367186,412.67235400390626L251.39201401367188,405.5683540039063C252.54541401367186,405.1643540039063,253.28161401367188,404.0343540039063,253.18401401367188,402.8163540039062C253.19971401367187,402.24835400390623,252.99301401367188,401.69735400390624,252.6080140136719,401.28035400390627C252.24991401367188,400.7923540039062,251.72681401367188,400.45135400390626,251.13601401367188,400.32035400390623L231.61601401367187,394.8803540039063L230.72001401367186,374.9123540039062C230.69341401367188,374.3323540039063,230.49271401367187,373.7753540039063,230.1440140136719,373.31235400390625ZM765.6316140136719,513.4083540039062C765.1876140136719,513.0213540039063,764.6926140136719,512.6983540039063,764.1596140136719,512.4483540039063C762.9756140136719,512.1243540039063,761.7166140136719,512.5873540039063,761.0236140136719,513.6003540039062L749.7596140136719,530.3043540039063L730.0476140136718,524.9283540039062C728.8316140136719,524.6083540039062,727.7436140136718,524.9923540039063,727.1036140136719,525.9523540039063C726.4006140136719,527.0403540039063,726.7196140136718,528.1923540039063,727.4876140136719,529.0883540039063L739.6476140136718,544.3203540039062L728.5756140136718,561.6643540039063C727.8076140136719,562.6243540039063,727.6796140136719,564.1593540039062,728.4476140136719,565.1203540039062L728.5756140136718,565.0553540039062C729.3436140136719,566.0793540039062,730.6876140136719,566.3363540039063,731.9036140136719,565.8873540039062L751.7436140136718,559.2313540039063L763.7756140136719,574.3993540039062C764.5436140136719,575.4233540039063,765.6316140136719,575.9353540039062,766.7836140136719,575.4873540039063C767.9356140136719,575.1043540039062,768.4476140136719,574.1443540039063,768.3836140136718,572.9283540039062L767.6796140136719,552.8313540039062L786.8156140136718,545.7273540039063C788.0316140136719,545.3443540039062,788.6716140136718,544.2563540039063,788.6076140136719,542.9753540039062C788.5996140136718,542.4003540039063,788.3706140136719,541.8503540039062,787.9676140136719,541.4393540039063C787.6156140136719,540.9753540039062,787.1206140136719,540.6383540039062,786.5596140136719,540.4793540039062L766.9756140136719,535.0393540039063L766.1436140136718,515.0713540039062C766.1846140136719,514.4733540039063,766.0016140136719,513.8803540039062,765.6316140136719,513.4083540039062Z" fill="url(#magic_dash_logo_mark)" fill-opacity="1" stroke="#F8FBFF" stroke-width="3.5" stroke-opacity="0.32" stroke-linejoin="round" stroke-linecap="round" paint-order="stroke fill" style="mix-blend-mode:passthrough"/></g></g></g></svg>
